<svg viewBox="0 0 92 92" xmlns="http://www.w3.org/2000/svg">
        <path fill="#F05032" d="M90.156 41.965L50.036 1.848a5.913 5.913 0 0 0-8.368 0l-8.332 8.332 10.566 10.566a7.03 7.03 0 0 1 7.23 1.684 7.043 7.043 0 0 1 1.673 7.277l10.183 10.184a7.03 7.03 0 0 1 7.277 1.672 7.044 7.044 0 0 1 0 9.957 7.044 7.044 0 0 1-9.958 0 7.05 7.05 0 0 1-1.532-7.66l-9.5-9.499v24.997a7.044 7.044 0 0 1 1.86 11.29 7.04 7.04 0 0 1-9.957 0 7.04 7.04 0 0 1 0-9.958 7.05 7.05 0 0 1 2.304-1.539V33.926a7.01 7.01 0 0 1-2.304-1.54 7.05 7.05 0 0 1-1.538-7.683L29.129 14.2 1.414 41.915a5.913 5.913 0 0 0 0 8.368l40.117 40.117a5.913 5.913 0 0 0 8.368 0L90.156 50.333a5.917 5.917 0 0 0 0-8.368z"/>
      </svg>