<svg viewBox="0 0 512 512" xmlns="http://www.w3.org/2000/svg">
        <path d="M108.4 0h23v22.8h21.2V0h23v69h-23V46h-21v23h-23.2V0zM206 23h-20.3V0h63.7v23H229v46h-23V23zM259.5 0h24.1l14.8 24.3L313.2 0h24.1v69h-22.9V34.8l-15.8 24.5h-.4l-16-24.5V69h-22.7V0zM348.7 0h23v46.2h32.6V69h-55.6V0z" fill="#E44D26"/>
        <path fill="#E44D26" d="M107.6 471l-33-370.4h362.8l-33 370.2L255.7 512"/>
        <path fill="#F16529" d="M256 480.5V131H404.3L376 447"/>
        <path fill="#EBEBEB" d="M142 176.3h114v45.4h-64.2l4.2 46.5h60v45.3H154.4M156.4 336.5H202l3.2 36.3 50.8 13.6v47.4l-93.2-26"/>
        <path fill="white" d="M369.6 176.3H255.8v45.4h109.6M361.3 268.2H255.8v45.4h56l-5.3 59-50.7 13.6v47.2l93-25.8"/>
      </svg>