<svg viewBox="0 0 680 300" xmlns="http://www.w3.org/2000/svg">
        <text x="42" y="248" fontFamily="Arial Black,sans-serif" fontWeight="900" fontSize="148" fill="#1B5FA8" letterSpacing="-4">L</text>
        <text x="140" y="248" fontFamily="Arial Black,sans-serif" fontWeight="900" fontSize="148" fill="#F5A623" letterSpacing="-4">A</text>
        <text x="255" y="248" fontFamily="Arial Black,sans-serif" fontWeight="900" fontSize="148" fill="#1B5FA8" letterSpacing="-4">M</text>
        <text x="428" y="248" fontFamily="Arial Black,sans-serif" fontWeight="900" fontSize="148" fill="#1B5FA8" letterSpacing="-4">P</text>
        <g transform="translate(538,18)">
          <path d="M62 18C100 18 128 50 128 92S100 166 62 166c0 0-4-14-4-26 22-4 40-24 40-48S80 48 58 44c0-12 4-26 4-26Z" fill="#1B5FA8"/>
          <path d="M54 148C20 140 0 118 0 90 0 58 24 32 54 24c0 0 10 16 8 32C46 62 36 74 36 90s10 28 24 36c2 12-6 22-6 22Z" fill="#F5A623"/>
          <path d="M46 46C42 34 50 18 58 8c2-4 4-6 4-6-4 12-2 24 6 32" fill="none" stroke="#1B5FA8" strokeWidth="8" strokeLinecap="round"/>
        </g>
      </svg>