<svg xmlns="http://www.w3.org/2000/svg" fill="none" viewBox="0 0 600 600"><g clip-path="url(#devicon-ant-design-5-a)"><path fill="url(#devicon-ant-design-6-b)" d="M274.4 10.9 10.6 274.4a36 36 0 0 0 0 51.2l263.8 263.6a36 36 0 0 0 51.3 0l110.6-110.5a32.5 32.5 0 1 0-46-46l-83.9 83.8a8.6 8.6 0 0 1-12.4 0L83.4 306a8.6 8.6 0 0 1 0-12.4L294 83.2a8.6 8.6 0 0 1 12.4 0l83.9 83.7a32.5 32.5 0 0 0 46-46L325.7 10.6a36.6 36.6 0 0 0-51.3.4"/><path fill="url(#devicon-ant-design-7-c)" d="M274.4 10.9 10.6 274.4a36 36 0 0 0 0 51.2l263.8 263.6a36 36 0 0 0 51.3 0l110.6-110.5a32.5 32.5 0 1 0-46-46l-83.9 83.8a8.6 8.6 0 0 1-12.4 0L83.4 306a8.6 8.6 0 0 1 0-12.4L294 83.2c8.8-7.6 23.1-23 44.2-26.5q23.6-4 51.3 17.6l-63.8-63.8a36.6 36.6 0 0 0-51.3.4"/><path fill="url(#devicon-ant-design-8-d)" d="M461.8 408.2a32.5 32.5 0 0 0 46 0l81.6-81.5a36 36 0 0 0 0-51.2l-82.3-82a32.6 32.6 0 0 0-46 46l55.5 55.6a8.6 8.6 0 0 1 0 12.4l-54.8 54.8a32.5 32.5 0 0 0 0 46"/><path fill="url(#devicon-ant-design-9-e)" d="M301.4 372.5a71.2 71.2 0 1 0 0-142.4 71.2 71.2 0 0 0 0 142.4"/></g><defs><linearGradient id="devicon-ant-design-6-b" x1="27684.5" x2="52750.3" y1=".2" y2="15307.4" gradientUnits="userSpaceOnUse"><stop stop-color="#4285EB"/><stop offset="1" stop-color="#2EC7FF"/></linearGradient><linearGradient id="devicon-ant-design-7-c" x1="31046.6" x2="18666.4" y1=".2" y2="63984.2" gradientUnits="userSpaceOnUse"><stop stop-color="#29CDFF"/><stop offset=".4" stop-color="#148EFF"/><stop offset="1" stop-color="#0A60FF"/></linearGradient><linearGradient id="devicon-ant-design-8-d" x1="10799.5" x2="-5309" y1="-2847.8" y2="22344.6" gradientUnits="userSpaceOnUse"><stop stop-color="#FA816E"/><stop offset=".4" stop-color="#F74A5C"/><stop offset="1" stop-color="#F51D2C"/></linearGradient><linearGradient id="devicon-ant-design-9-e" x1="9934" x2="4574.2" y1="-4849.2" y2="16590.7" gradientUnits="userSpaceOnUse"><stop stop-color="#FA8E7D"/><stop offset=".5" stop-color="#F74A5C"/><stop offset="1" stop-color="#F51D2C"/></linearGradient><clipPath id="devicon-ant-design-5-a"><path fill="#fff" d="M0 0h600v600H0z"/></clipPath></defs></svg>