<svg xmlns="http://www.w3.org/2000/svg" fill="none" viewBox="0 0 600 600"><g clip-path="url(#devicon-jira-3-a)"><path fill="#2684FF" d="M575 0H286a130.4 130.4 0 0 0 130.4 130.4h53.3v51.4c0 72 58.3 130.3 130.3 130.4V25a25 25 0 0 0-25-25"/><path fill="url(#devicon-jira-4-b)" d="M432 144H143c0 72 58.4 130.3 130.4 130.3h53.2V326c.1 72 58.5 130.2 130.4 130.2v-287a25 25 0 0 0-25-25.1"/><path fill="url(#devicon-jira-5-c)" d="M289 287.8H0c0 72 58.4 130.5 130.4 130.5h53.4v51.4c0 71.9 58.3 130.2 130.2 130.3V313a25 25 0 0 0-25-25.2"/></g><defs><linearGradient id="devicon-jira-4-b" x1="30924.3" x2="18708.3" y1="194.1" y2="12940.9" gradientUnits="userSpaceOnUse"><stop offset=".2" stop-color="#0052CC"/><stop offset="1" stop-color="#2684FF"/></linearGradient><linearGradient id="devicon-jira-5-c" x1="31608.4" x2="17477.6" y1="429.9" y2="14332.6" gradientUnits="userSpaceOnUse"><stop offset=".2" stop-color="#0052CC"/><stop offset="1" stop-color="#2684FF"/></linearGradient><clipPath id="devicon-jira-3-a"><path fill="#fff" d="M0 0h600v600H0z"/></clipPath></defs></svg>