<svg xmlns="http://www.w3.org/2000/svg" fill="none" viewBox="0 0 600 600"><g clip-path="url(#devicon-swagger-1-a)"><path fill="#85EA2D" d="M300 585.7A286 286 0 0 1 14.3 300 286 286 0 0 1 300 14.3 286 286 0 0 1 585.7 300 286 286 0 0 1 300 585.7"/><path fill="#173647" d="M300 28.6a271.4 271.4 0 1 1 0 542.8 271.4 271.4 0 0 1 0-542.8M300 0A300.3 300.3 0 0 0 0 300c0 165.4 134.6 300 300 300s300-134.6 300-300S465.4 0 300 0"/><path fill="#173647" d="M188.9 203c-1 10.3.3 20.9-.3 31.3q-1.1 15.5-4.2 30.9a57 57 0 0 1-24.6 35c24.5 15.9 27.3 40.6 28.9 65.6.8 13.5.4 27.1 1.8 40.5 1 10.4 5 13 15.8 13.4h14v32c-31.7 5.4-58-3.5-64.4-30.4q-3.1-14.8-4-30c-.6-10.7.5-21.5-.3-32.2-2.3-29.4-6-39.3-34.2-40.7v-36.6q3-.7 6.1-1c15.5-.8 22-5.6 25.4-20.8q2.3-12.8 2.9-26c1.1-16.7.7-33.8 3.5-50.4 4-23.8 18.8-35.4 43.4-36.8 7-.3 14 0 22 0v32.8c-3.4.2-6.3.7-9.3.7-20-.7-21 6.1-22.5 22.7m38.4 76h-.4a21.1 21.1 0 0 0-2.1 42h1.4c11.4.7 21.2-8 21.9-19.5v-1.1a21 21 0 0 0-20.8-21.5m72.3 0a20 20 0 0 0-20.7 21.4c0 12.5 8.5 20.6 21.4 20.6 12.7 0 20.7-8.3 20.7-21.3-.1-12.6-8.5-20.9-21.4-20.8m74.1 0a21.5 21.5 0 0 0-21.9 20.8c0 11.8 9.5 21.2 21.2 21.2h.3c10.6 1.9 21.3-8.4 22-20.7.6-11.5-9.8-21.4-21.6-21.4m101.6 1.6c-13.3-.5-20-5-23.4-17.7q-3-12.2-3.8-24.8c-.9-15.5-.8-31-1.8-46.5-2.4-36.7-29-49.5-67.5-43.2V180h15.6c8.2.2 14.4 3.3 15.2 12.4.8 8.3.8 16.8 1.6 25.2 1.6 16.7 2.5 33.7 5.4 50.2 2.6 13.6 12 23.7 23.6 32-20.5 13.8-26.5 33.4-27.5 55.4l-1.7 45.6c-.7 13.8-5.6 18.3-19.5 18.7-4 0-7.7.4-12.1.7V453c8.2 0 15.7.5 23.2 0 23.3-1.4 37.3-12.7 42-35.3q2.9-18.7 3.4-37.6c.8-11.5.7-23.2 1.9-34.6 1.7-17.9 9.9-25.3 27.8-26.4q2.5-.4 5-1.2v-36.5z"/></g><defs><clipPath id="devicon-swagger-1-a"><path fill="#fff" d="M0 0h600v600H0z"/></clipPath></defs></svg>